<svg width="705" height="677" viewBox="0 0 705 677" fill="none" xmlns="http://www.w3.org/2000/svg">
<path d="M339.667 642.167C337.667 642.667 335.667 642.833 333.667 642.833C333.333 642.833 333 642.833 332.667 642.833C318.667 642.333 305.667 631.333 297.667 616.667C262.167 551.333 252.5 511 239.667 466.833C236.5 455.833 237.333 444.667 242 436.667C245.667 430.5 251.5 426 259.5 425.167C260.5 425 261.333 425 262.333 425C276.5 425 291.333 436.333 297.167 451L358 600C365.667 618.833 357.333 638.167 339.667 642.167Z" fill="#FFB96C"/>
<path d="M332.667 642.833C318.667 642.333 305.667 631.333 297.667 616.667C262.167 551.333 252.5 511 239.667 466.833C236.5 455.833 237.333 444.667 242 436.667C257.833 475 309.833 600.833 325.833 630.167C328.333 634.833 330.667 639 332.667 642.833Z" fill="#FCAF63"/>
<path d="M416 619.667C414.5 623.5 412.5 626.5 410.5 628C398.5 637.5 386.667 639.667 366.833 644C347 648.333 326.5 647.333 317 638.333C313.833 635.333 311.5 632 310.167 628.5C306 618.5 309.667 608 321.5 603.5C328.5 600.833 392.167 585.833 402.667 587.833C420.833 591.333 420.5 608.5 416 619.667Z" fill="#FFB96C"/>
<path d="M416 619.667C414.5 623.5 412.5 626.5 410.5 628C398.5 637.5 386.667 639.667 366.833 644C347 648.333 326.5 647.333 317 638.333C313.833 635.333 311.5 632 310.167 628.5C315.5 630 326.167 632 344.333 630C359.667 628.333 391.167 623.5 416 619.667Z" fill="#FCAF63"/>
<path d="M399.333 589C379.5 595.667 381.667 608.833 384.667 621.667C387.667 634.5 412.333 667.5 419.833 669.167C427.333 670.833 427.833 667.833 425.833 661.667C423.833 655.5 409.667 634 409.667 634C409.667 634 425.333 655.333 431.833 661.667C438.333 668 443.833 667.5 443.667 660.5C443.333 653.5 427.833 630 427.833 630C427.833 630 441.5 648 447.167 654.167C452.833 660.333 460.333 659.333 457.667 651C455.167 642.667 443.833 624.5 443.833 624.5C443.833 624.5 454.833 642.833 462.167 644.667C469.5 646.5 465 635.5 457.167 621.5C449.5 607.167 424 580.667 399.333 589Z" fill="#FEA691"/>
<path d="M382.667 607.333C382.667 607.333 378.5 623.667 381.167 638C383.833 652.333 388.333 655.167 391.333 655.833C394.333 656.5 395.333 652.667 393.833 646.5C392.333 640.333 396.333 628.167 396.333 628.167C396.333 628.167 392 603.667 382.667 607.333Z" fill="#FEA691"/>
<path d="M304.167 659.667H136C136 659.667 112.833 497.667 127.5 457.833C131.667 446.5 137.167 437.333 143.5 429.667C159.333 410.333 179.667 401.5 193.5 398C211.667 393.333 227.5 393.167 241.167 396.5C277.5 405.167 297.667 438.333 304.167 474.5C313.167 524.333 304.167 659.667 304.167 659.667Z" fill="#FEC272"/>
<path d="M195 430.5C173 436.167 152.833 435.5 143.333 429.667C159.167 410.333 179.5 401.5 193.333 398C211.5 393.333 227.333 393.167 241 396.5C244 407.833 223.333 423.167 195 430.5Z" fill="#F9B35F"/>
<path d="M180.667 468.5C180.667 471.167 180.5 473.833 180 476.333C173.167 520.667 133.833 627.333 133.833 627.333C131 635.833 125 642.167 117.667 645.667C110.333 649 101.833 649.667 93.6667 646.5C81 641.5 75 629.5 75 616.333C75 613.5 75.3333 610.667 75.8333 607.833C87.3333 545.667 107.833 494.167 124.667 457.833C132 441.833 150 431.833 165.833 439.833C170.667 442.167 174 446 176.5 450.333C179.5 455.667 180.667 462 180.667 468.5Z" fill="#FFCD92"/>
<path d="M180.667 468.5C180.667 471.167 180.5 473.833 180 476.333C173.167 520.667 133.833 627.333 133.833 627.333C131 635.833 125 642.167 117.667 645.667L176.333 450.167C179.5 455.667 180.667 462 180.667 468.5Z" fill="#FCB765"/>
<path d="M233.167 645.333C229.5 654.333 217.5 654.667 217.5 654.667C217.5 654.667 183.833 656.667 154.667 656.667C125.5 656.667 96.8333 656.667 85.1667 643.5C82.8333 640.833 81 637.833 80 634.667C75.6667 622.5 81.1667 608 98.5 600.667C111 595.333 125.333 597.167 141 598.667C156.667 600.167 186.833 607.167 204.333 611.833C222 616.333 232.5 620.833 234 637.5C234.5 640.667 234 643.167 233.167 645.333Z" fill="#FFCD92"/>
<path d="M233.167 645.333C229.5 654.333 217.5 654.667 217.5 654.667C217.5 654.667 183.833 656.667 154.667 656.667C125.5 656.667 96.8333 656.667 85.1667 643.5C82.8333 640.833 81 637.833 80 634.667C93 638.667 110.5 643.333 124.5 644.5C164 647.833 216.333 646.167 233.167 645.333Z" fill="#FCB765"/>
<path d="M268.333 618.5C268.333 621.167 268 624 267.333 627C263.833 641.333 245.333 652.333 217.167 653.833C204.667 654.5 196.167 654.5 190.5 653.167C183.167 651.333 180.333 647 179.667 638C178.833 626.5 187.5 616 194 611.5C213.5 598.333 231.667 597.333 247.5 598.833C261.667 600.333 268.167 608.167 268.333 618.5Z" fill="#FEA691"/>
<path d="M268.333 618.5C268.333 621.167 268 624 267.333 627C263.833 641.333 245.333 652.333 217.167 653.833C204.667 654.5 196.167 654.5 190.5 653.167C189.833 651.5 189.333 649.5 189.167 647C188.333 637.167 196.5 628 202.833 624.167C221.333 612.833 238.667 611.833 253.667 613.333C260.333 613.833 265.167 615.667 268.333 618.5Z" fill="#FC8172"/>
<path d="M290.167 647.5C290.167 649.333 289.833 651 289.333 652.833H197.667C197.167 651.167 196.833 649.333 196.833 647.5C196.833 631.5 217.667 618.5 243.5 618.5C269.333 618.5 290.167 631.5 290.167 647.5Z" fill="#C7DCF9"/>
<path opacity="0.55" d="M288.167 650C288.167 651 288 651.833 287.5 652.833H203.667C203.167 651.833 203 651 203 650C203 641.5 222 634.5 245.5 634.5C269.167 634.5 288.167 641.5 288.167 650Z" fill="#C7DCF9"/>
<path d="M270 594C276 594.667 280.167 598.5 282.5 606.5C284.833 614.5 285.333 626.333 282.833 630.5C280.333 634.667 275.667 636.5 270.5 632.333C265.333 628.167 262.5 616.5 260.833 610.667C258.833 603 256.5 592.667 270 594Z" fill="#FEA691"/>
<path d="M247.667 590.167C254.167 590.833 256.833 596.333 259.333 604.667C261.833 613 262.333 625.667 259.667 630.167C257 634.5 252 636.5 246.5 632.167C241 627.833 237.833 615.333 236.167 609.167C234 601 233 588.833 247.667 590.167Z" fill="#FEA691"/>
<path d="M254.167 634.333C251.833 634.833 249.167 634.333 246.5 632C241 627.667 238 615.167 236.167 609C234.333 602.333 233.333 592.833 241.167 590.5C239.667 595 240.5 601.167 241.667 605.833C243.333 613 246.5 627.5 252 632.5C252.833 633.333 253.5 634 254.167 634.333Z" fill="#FF8D76"/>
<path d="M223.333 594C229.833 594.667 234.167 598.833 236.667 607.167C239.167 615.5 239.667 628.167 237 632.667C234.333 637 229.333 639 223.833 634.667C218.333 630.333 215.167 617.833 213.5 611.667C211.333 603.5 208.833 592.5 223.333 594Z" fill="#FEA691"/>
<path d="M229.833 637C228 637 226 636.167 224 634.5C218.5 630.167 215.5 617.667 213.667 611.5C212 605.167 210 597.167 216.167 594.5C215.667 598.667 216.833 604 218 608.333C220 615.833 223.5 631.167 229.667 636.667C229.667 637 229.667 637 229.833 637Z" fill="#FF8D76"/>
<path d="M201.5 598.667C207.167 597 211.5 603.167 213.667 610.833C215.833 618.5 216.5 630.167 214 634.167C211.667 638.167 207 640 202 636C197 632 195.667 624.333 194.167 618.667C192.167 611.333 190.5 602 201.5 598.667Z" fill="#FEA691"/>
<path d="M207.667 638.333C205.833 638.333 204 637.667 202 636C197 632 195.667 624.333 194.167 618.667C192.333 612.333 191 604.5 197.667 600.333C197.167 604.833 198 609.667 198.833 614C200.333 621.667 201.5 632.167 207.167 637.833C207.333 638 207.5 638.167 207.667 638.333Z" fill="#FF8D76"/>
<path d="M277 634.5C275 634.667 272.833 634 270.667 632.167C265.5 628 262.667 616.333 261 610.5C259.333 604.333 257.333 596.333 264 594.333C264 598 264.833 602.167 265.667 605.833C267.333 613.333 270.5 628.333 275.833 633.667C276.333 634 276.667 634.333 277 634.5Z" fill="#FF8D76"/>
<path d="M197 224.667C197 224.667 212.5 218.333 223 239.333C233.5 260.5 222.167 274 222.167 274C222.167 274 211.833 243.5 197 224.667Z" fill="#FF8D76"/>
<path d="M207.667 417.833C193 424.667 182.833 415.167 182.833 415.167L173.667 395.333L157.167 359.667C182 354.333 203.667 350.167 203.667 350.167L207.5 366L214.667 395.5C214.333 395.667 222.333 411.167 207.667 417.833Z" fill="#FEA691"/>
<path d="M207.333 366.167C205.167 369.333 202.833 372.667 200 375.833C192.833 384.333 182.5 390.833 173.5 395.333L157 359.667C181.833 354.333 203.5 350.167 203.5 350.167L207.333 366.167Z" fill="#FF8D76"/>
<path d="M193.733 363.485C230.858 340.919 238.591 285.835 211.005 240.452C183.419 195.068 130.96 176.571 93.8352 199.137C56.7102 221.703 48.9774 276.787 76.5635 322.171C104.15 367.554 156.608 386.052 193.733 363.485Z" fill="#FEA691"/>
<path d="M211.333 347.667C206.5 353.833 200.5 359.167 193.667 363.5C156.5 386 104.167 367.5 76.5 322.167C49.1667 277.333 56.5 222.833 92.6667 199.833C71.6667 226.833 70.6667 270.167 93.1667 307C120.667 352.333 173.167 370.833 210.333 348.333C210.667 348.167 211 348 211.333 347.667Z" fill="#FF8D76"/>
<path d="M111 348.833C111 348.833 82.6668 326.5 75.5001 286.5C68.3334 246.5 76.3334 230.333 109.167 211C142 191.833 166.5 198.667 166.5 198.667C166.5 198.667 143.167 181.167 105 187.667C66.8334 194 28.0001 230.333 36.0001 285C44.3334 343.333 79.0001 360.5 111 348.833Z" fill="#283575"/>
<path d="M145.333 244.333C140.833 247.5 147.167 264.333 160.833 276.833C174.5 289.333 187.667 282.833 188 270.5C188.333 257.833 160.833 233.333 145.333 244.333Z" fill="#F76F59"/>
<path d="M78.1667 318.667C78.1667 318.667 51.5 344.833 75.5 367.667C98.5 389.5 127.5 360.167 127.5 360.167C127.5 360.167 86.8334 338.333 78.1667 318.667Z" fill="#FF8D76"/>
<path d="M81.3333 333.833C81.3333 333.833 66.3333 348.5 79.8333 361.5C92.8333 373.833 109.167 357.333 109.167 357.333C109.167 357.333 86.1667 345 81.3333 333.833Z" fill="#F76F59"/>
<path d="M163.167 196.5C163.167 196.5 166 146.167 137.333 125.667C105 102.667 86.8334 135.833 97.5 163C102.167 175.167 107.167 182.5 111.167 186.833C114.833 190.833 119.833 193.167 125.167 193.5L163.167 196.5Z" fill="#283575"/>
<path d="M53.5 154C28 174.333 50 203.5 60.5 211.333C65 214.667 69.8333 217.333 74 219.333C79.6667 222 86.3333 221.667 91.6667 218.333L127.667 195.5C127.667 195.667 87.3333 127.167 53.5 154Z" fill="#283575"/>
<path d="M114 120.167C106 121.167 114.833 136.5 126.5 138.5C138.167 140.5 134.5 117.667 114 120.167Z" fill="#3C4E8E"/>
<path d="M63.5 154.333C58.8333 159.667 71 166.5 80.8333 163.167C90.8333 160 73.8333 142.667 63.5 154.333Z" fill="#3C4E8E"/>
<path d="M211.833 308C211 309.667 209.833 311.167 208.167 312.5C202 317.333 197.333 324.333 194 331.667C191 338.167 183.333 345.833 176.167 340.333C175.333 339.667 174.5 339 173.833 338C166.333 328.5 169.167 304 180.833 293.167C189.833 284.833 201 287 206.667 291.667C212.167 295.833 214.5 302.5 211.833 308Z" fill="#F76F59"/>
<path d="M211.833 308C211 309.667 209.833 311.167 208.167 312.5C202 317.333 197.333 324.333 194 331.667C191 338.167 183.333 345.833 176.167 340.333C176.167 329.833 180 317.5 187.333 310.833C195.833 303.167 205.833 304.167 211.833 308Z" fill="#FF6EA9"/>
<path d="M108.667 279.167C103.333 279.167 99.1666 277.5 98.8333 277.333C96.6666 276.5 95.6666 274 96.5 271.833C97.3333 269.667 99.8333 268.667 102 269.5C102.167 269.5 111.333 273.167 116.333 267.667C122.833 260.833 116 252 115.833 251.667C114.333 249.833 114.667 247.167 116.5 245.667C118.333 244.167 121 244.5 122.5 246.333C126.5 251.5 131.667 263.667 122.5 273.333C118.333 277.833 113.167 279.167 108.667 279.167Z" fill="#1C3177"/>
<path d="M170.667 237.333C162.167 237.333 155 231 154.5 230.667C152.667 229.167 152.667 226.333 154.167 224.667C155.667 223 158.333 222.833 160.167 224.333C160.167 224.333 167.833 230.833 173.5 228.333C176 227.167 174.167 222 174 221.833C173.167 219.667 174.167 217.167 176.5 216.333C178.667 215.5 181.167 216.5 182 218.667C184.5 224.833 183.833 233 177 236C174.833 237 172.667 237.333 170.667 237.333Z" fill="#1C3177"/>
<path d="M86.3333 269.167C86.1667 269.167 86 269.167 85.8333 269.167C83.5 268.833 81.8333 266.833 82 264.5C82 264 83.1667 254 90.1667 243.833C97 233.667 104 230.167 104.333 230C106.5 229 109 229.833 110 232C111 234.167 110.167 236.667 108 237.667C108 237.667 102.667 240.5 97.1667 248.5C91.5 256.833 90.5 265.167 90.5 265.333C90.3333 267.5 88.5 269.167 86.3333 269.167Z" fill="#1C3177"/>
<path d="M147.333 219.833C146.167 219.833 144.833 219.333 144 218.333C142.5 216.5 142.833 213.833 144.667 212.333C145.167 212 149 208.833 155.833 206.833C162.667 204.833 168.333 205 168.5 205C170.833 205 172.667 207 172.667 209.333C172.667 211.667 170.5 213.5 168.333 213.5C168.333 213.5 163.833 213.333 158.333 215C153 216.667 150 219 150 219C149.167 219.5 148.333 219.833 147.333 219.833Z" fill="#1C3177"/>
<path d="M692.167 676.833H12.8334C6.16671 676.833 0.833374 671.5 0.833374 664.833C0.833374 658.167 6.16671 652.833 12.8334 652.833H692.167C698.833 652.833 704.167 658.167 704.167 664.833C704.167 671.333 698.833 676.833 692.167 676.833Z" fill="#99ADF9"/>
<path d="M691 676.833H110.833C104.167 676.833 98.8334 671.5 98.8334 664.833C98.8334 658.167 104.167 652.833 110.833 652.833H691C697.667 652.833 703 658.167 703 664.833C703.167 671.333 697.667 676.833 691 676.833Z" fill="#789FEF"/>
<path d="M611.667 574.167H301.667C296.167 574.167 291.833 569.167 292.833 563.667L325.833 365.833C326.5 361.5 330.333 358.333 334.667 358.333H644.667C650.167 358.333 654.5 363.333 653.5 368.833L620.667 566.667C619.833 571 616.167 574.167 611.667 574.167Z" fill="#E1ECFF"/>
<path d="M618.333 574.167H312.333C306.833 574.167 302.5 569.167 303.5 563.667L336.5 365.833C337.167 361.5 341 358.333 345.333 358.333H651.333C656.833 358.333 661.167 363.333 660.167 368.833L627.167 566.667C626.5 571 622.667 574.167 618.333 574.167Z" fill="#C7DCF9"/>
<path d="M586 553H352.333C348 553 344.833 549.167 345.5 545L370.667 394C371.167 390.667 374.167 388.167 377.5 388.167H611C615.333 388.167 618.5 392 617.833 396.167L592.667 547.167C592.167 550.5 589.333 553 586 553Z" fill="#B7D4F7"/>
<path d="M486.167 640.5H443.667C439.667 640.5 436.667 637.167 437 633.167L448.167 522.333C448.5 519 451.333 516.333 454.833 516.333H497.333C501.333 516.333 504.333 519.667 504 523.667L492.833 634.5C492.5 638 489.667 640.5 486.167 640.5Z" fill="#E1ECFF"/>
<path d="M489.167 640.5H450.167C447.667 640.5 445.667 638.333 445.833 635.833L457.5 520.167C457.667 518 459.5 516.333 461.833 516.333H500.833C503.333 516.333 505.333 518.5 505.167 521L493.5 636.667C493.167 638.833 491.333 640.5 489.167 640.5Z" fill="#C7DCF9"/>
<path d="M556.833 652.667H379.833C376.167 652.667 373.167 649.667 373.167 646V631.333C373.167 627.667 376.167 624.667 379.833 624.667H556.833C560.5 624.667 563.5 627.667 563.5 631.333V646C563.5 649.667 560.5 652.667 556.833 652.667Z" fill="#E1ECFF"/>
<path d="M560.5 652.667H394C390.166 652.667 387 649.5 387 645.667V631.667C387 627.833 390.166 624.667 394 624.667H560.5C564.333 624.667 567.5 627.833 567.5 631.667V645.667C567.333 649.5 564.333 652.667 560.5 652.667Z" fill="#C7DCF9"/>
<path d="M684.833 330.833C683.167 332 681 332.833 678.667 332.833H519C511 332.833 506 324.5 509.667 317.333L567.667 205.833L589 164.833C593 157.333 603.667 157.333 607.667 164.833L688 317.333C690.667 322.333 688.833 328 684.833 330.833Z" fill="#FF97C9"/>
<path d="M684.833 330.833C683.167 332 681 332.833 678.667 332.833H519C511 332.833 506 324.5 509.667 317.333L567.667 205.833L550 299.667C548.5 307.667 554 315.167 562.167 316.167L684.833 330.833Z" fill="#FC72BB"/>
<path d="M591 273.167L582.667 213.5C582.333 211.5 584 209.667 586 209.667H609.667C611.667 209.667 613.167 211.5 613 213.5L604.667 273.167C604.5 274.833 603 276 601.333 276H594.167C592.5 276.167 591.167 274.833 591 273.167Z" fill="white"/>
<path d="M597.833 310C604.369 310 609.667 304.702 609.667 298.167C609.667 291.631 604.369 286.333 597.833 286.333C591.298 286.333 586 291.631 586 298.167C586 304.702 591.298 310 597.833 310Z" fill="white"/>
<path d="M165.167 68.3334L168.167 74.5C168.5 75.3334 169.333 75.8334 170.167 75.8334L176.833 76.8334C179 77.1667 179.833 79.6667 178.167 81.1667L173.333 85.8334C172.667 86.5 172.5 87.3334 172.667 88.1667L173.833 94.8334C174.167 96.8334 172 98.5 170.167 97.5L164.167 94.3334C163.5 94.0001 162.5 94.0001 161.833 94.3334L155.833 97.5C154 98.5 151.833 96.8334 152.167 94.8334L153.333 88.1667C153.5 87.3334 153.167 86.5 152.667 85.8334L147.833 81.1667C146.333 79.6667 147.167 77.1667 149.167 76.8334L155.833 75.8334C156.667 75.6667 157.333 75.1667 157.833 74.5L160.833 68.3334C161.5 66.5 164.167 66.5 165.167 68.3334Z" fill="#FEC272"/>
<path d="M489.5 116.667C489.5 139.667 482.833 161 471.333 179.167C467.167 188.833 446.167 229.667 374.833 262.333C300 296.667 233.667 272.167 233.667 272.167C233.667 272.167 274.5 245.333 266.833 200.5C260.833 165.167 256.667 139.833 257 118.5C257 117.833 257 117.333 257 116.667C257 52.5 309 0.5 373.167 0.5C437.333 0.5 489.5 52.5 489.5 116.667Z" fill="#F0F6FF"/>
<path d="M245.833 193.833C239.667 178 233.5 178.667 229.333 181.667C225.5 184.5 224.667 194.333 229.333 203.667C234 213 238.667 212.333 243.333 209.833C248 207.333 248.667 201.167 245.833 193.833Z" fill="#C7DCF9"/>
<path d="M451.667 228.833C426 242.5 428.333 253 434.333 259.333C440 265.333 456.833 264.667 471.667 255C486.5 245.333 484.667 237.5 479.5 230C474.333 222.5 463.5 222.333 451.667 228.833Z" fill="#C7DCF9"/>
<path d="M456.667 152.667C456.667 159 453.667 165.333 448 169.167C435.667 177.833 416 190.667 394.333 202C380.5 209.333 368.5 215 358.833 219.167C350.833 222.667 342 222 334.833 218C330 215.333 326 211.167 323.5 205.833C321.833 202.167 320.833 198.167 320.833 194.167C320.833 190.833 321.5 187.5 322.667 184.167L323.333 182.333L352 109.667L313.667 130.333C303 136 289.833 132.333 283.667 121.833C283.5 121.5 283.333 121.167 283.167 120.833C281.5 117.5 280.667 114 280.667 110.5C280.667 103.167 284.333 95.8333 291 91.6667C303.167 83.8333 320.833 73.1667 341.833 62C382.167 40.5 402.167 43.1667 407.833 54C413.5 65 381 157 381 157C381 157 424.5 135.167 429.167 133.5C439.167 129.667 450.333 134.333 454.833 144C455.833 146.167 456.333 148.5 456.5 150.833C456.667 151.667 456.667 152.167 456.667 152.667Z" fill="#99ADF9"/>
<path d="M364.167 97.6667C354.5 121.5 331.667 176.333 323.667 182.5L352.334 109.833L314 130.5C303.334 136.333 289.833 132.5 283.833 121.833C284.167 121.5 283.834 121.833 284.167 121.5C288 123.333 294.834 125 305 120C324 111 345.667 99.1667 358.167 92.3334C361.667 90.5001 365.667 94.0001 364.167 97.6667Z" fill="#7D9AF9"/>
<path d="M456.667 152.667C456.667 159 453.667 165.333 448 169.167C435.667 177.833 416 190.667 394.334 202C380.5 209.333 368.5 215 358.833 219.167C350.833 222.667 342 222 334.833 218C336.333 217.667 337.834 217.333 339.167 216.833C346.667 214.333 380.5 196.5 413.667 178.667C435.333 167 450 157.667 456.5 151.333C456.667 151.667 456.667 152.167 456.667 152.667Z" fill="#7D9AF9"/>
<path opacity="0.49" d="M372.667 52.3333C357.667 57.3333 350 66.6666 368 65.6666C386 64.6666 395.5 55.5 392.334 52.5C389.167 49.6666 379.5 50 372.667 52.3333Z" fill="white"/>
<path opacity="0.49" d="M430.167 137.333C420.667 140.5 415.667 146.5 427.167 145.833C438.667 145.167 444.667 139.333 442.667 137.5C440.5 135.667 434.5 135.833 430.167 137.333Z" fill="white"/>
</svg>
